<svg width="27" height="25" viewBox="0 0 27 25" fill="none" xmlns="http://www.w3.org/2000/svg">
<path d="M18.6304 7.64825H6.41304C6.07544 7.64825 5.80566 7.91783 5.80566 8.25462C5.80566 8.62526 6.07569 8.86099 6.41304 8.86099H18.5966C18.9342 8.86099 19.204 8.59141 19.204 8.25462C19.2379 7.88422 18.9679 7.64825 18.6305 7.64825H18.6304Z" fill="#F47220"/>
<path d="M18.6304 11.8936H6.41304C6.07544 11.8936 5.80566 12.1632 5.80566 12.5C5.80566 12.837 6.07569 13.1063 6.41304 13.1063H18.5966C18.9342 13.1063 19.204 12.8368 19.204 12.5C19.2379 12.1629 18.9679 11.8936 18.6305 11.8936H18.6304Z" fill="#F47220"/>
<path d="M18.6304 16.139H6.41304C6.07544 16.139 5.80566 16.4086 5.80566 16.7454C5.80566 17.116 6.07569 17.3518 6.41304 17.3518H18.5966C18.9342 17.3518 19.204 17.0822 19.204 16.7454C19.2379 16.4086 18.9679 16.139 18.6305 16.139H18.6304Z" fill="#F47220"/>
<path d="M23.1527 17.6889C22.7814 17.4868 22.3765 17.5878 22.1741 17.9585C20.1829 21.4289 16.5043 23.5853 12.5217 23.5853C6.41303 23.5853 1.41809 18.5987 1.41809 12.5001C1.41809 6.40154 6.41297 1.41495 12.5217 1.41495C16.4367 1.41495 19.9804 3.43669 22.0391 6.77217C22.2415 7.1092 22.6804 7.21025 23.0177 7.00814C23.3553 6.80601 23.4565 6.3679 23.2541 6.03114C20.9928 2.25753 16.9766 2.96295e-08 12.5217 2.96295e-08C5.60303 -0.000470055 0 5.59271 0 12.4997C0 19.4067 5.60249 25 12.5211 25C17.0098 25 21.1947 22.5741 23.4222 18.6656C23.591 18.3286 23.4898 17.8907 23.1522 17.6884L23.1527 17.6889Z" fill="#F47220"/>
<path d="M26.2912 11.8262H25.0425C24.975 11.2198 24.9076 10.5796 24.7725 10.0069C24.6713 9.63623 24.3 9.40051 23.9288 9.46772C23.5575 9.53518 23.3214 9.93942 23.3887 10.3101C23.5236 10.8154 23.5575 11.3209 23.6251 11.8601H22.174C21.8027 11.8601 21.499 12.1633 21.499 12.5339C21.499 12.9045 21.8027 13.2077 22.174 13.2077H23.659C23.6253 13.7469 23.5578 14.2521 23.4902 14.7577C23.4226 15.1284 23.659 15.5326 24.0639 15.6001H24.1988C24.5364 15.6001 24.8062 15.3641 24.9077 14.9937C25.0426 14.3873 25.0765 13.7807 25.1101 13.1744L26.3251 13.1739C26.6964 13.1739 27 12.8707 27 12.5001C27 12.1295 26.6625 11.8263 26.2912 11.8263L26.2912 11.8262Z" fill="#F47220"/>
</svg>
